<svg width="20" height="24" viewBox="0 0 20 24" fill="none" xmlns="http://www.w3.org/2000/svg">
<path fill-rule="evenodd" clip-rule="evenodd" d="M4.22537 9.84375C4.22537 6.89248 6.61785 4.5 9.56912 4.5C12.5204 4.5 14.9129 6.89248 14.9129 9.84375C14.9129 12.795 12.5204 15.1875 9.56912 15.1875C6.61785 15.1875 4.22537 12.795 4.22537 9.84375ZM9.56912 6.1875C7.54983 6.1875 5.91287 7.82446 5.91287 9.84375C5.91287 11.863 7.54983 13.5 9.56912 13.5C11.5884 13.5 13.2254 11.863 13.2254 9.84375C13.2254 7.82446 11.5884 6.1875 9.56912 6.1875Z" fill="white"/>
<path fill-rule="evenodd" clip-rule="evenodd" d="M0.0340287 8.55771C0.432647 3.72177 4.47382 0 9.32616 0H9.81209C14.6644 0 18.7056 3.72177 19.1042 8.55771C19.3183 11.1555 18.5159 13.735 16.8659 15.7529L11.4737 22.3474C10.4893 23.5513 8.6489 23.5513 7.66452 22.3474L2.27233 15.7529C0.622338 13.735 -0.180103 11.1555 0.0340287 8.55771ZM9.32616 1.6875C5.35205 1.6875 2.0423 4.73566 1.71582 8.69634C1.53761 10.8584 2.20546 13.0053 3.5787 14.6847L8.9709 21.2792C9.28008 21.6573 9.85816 21.6573 10.1673 21.2792L15.5595 14.6847C16.9328 13.0053 17.6006 10.8584 17.4224 8.69634C17.0959 4.73566 13.7862 1.6875 9.81209 1.6875H9.32616Z" fill="white"/>
</svg>
